<svg xmlns="http://www.w3.org/2000/svg" width="256" height="256"><path fill-opacity=".016" d="M0 128.004v128.004l128.25-.254 128.25-.254.254-127.75L257.008 0H0v128.004m.485.496c0 70.4.119 99.053.265 63.672.146-35.38.146-92.98 0-128C.604 29.153.485 58.1.485 128.5" fill="#1976D2" fill-rule="evenodd"/><path fill-opacity=".067" d="M33.757 17.291C16.848 26.756 3.019 34.725 3.027 35c.012.456 59.86 34.063 62.033 34.833.532.189.94-2.853.939-7l-.001-7.333 20.501.289 20.501.29v165.333l10.25 17.269c5.638 9.497 10.497 17.28 10.799 17.294.301.014 5.139-7.761 10.75-17.278L149 221.394V56.079l20.501-.29 20.501-.289-.001 7.25c-.001 3.987.257 7.25.572 7.25.948 0 62.393-34.46 62.407-35 .016-.571-61.272-35-62.304-35-.372 0-.676 3.15-.676 7v7H66V7c0-3.85-.338-6.982-.75-6.959-.412.022-14.585 7.785-31.493 17.25" fill="#1976D2" fill-rule="evenodd"/><path fill-opacity=".261" d="M190.791 7.382 190.5 14.5l-62.25.258-62.25.257V8.008C66 3.667 65.59 1 64.923 1 63.582 1 3.998 34.215 4.004 34.959 4.01 35.677 63.726 69 65.006 69c.564 0 .994-3.028.994-7v-7h41v165.67l10.226 17.173c5.624 9.445 10.568 17.057 10.986 16.915.418-.142 5.267-7.851 10.774-17.132L149 220.751V54.959l20.75.271 20.75.27.296 6.75c.162 3.713.545 6.75.851 6.75C192.679 69 252 35.527 252 34.944c0-.318-13.706-8.25-30.459-17.629L191.082.264l-.291 7.118" fill="#1976D2" fill-rule="evenodd"/><path fill-opacity=".104" d="M35 17.512C18.775 26.585 5.381 34.364 5.235 34.8c-.146.436 13.129 8.284 29.5 17.441L64.5 68.89l.294-6.945.294-6.945H108v166.516l8.562 14.492c4.709 7.971 9.245 15.544 10.08 16.83 1.487 2.289 1.727 1.988 11.433-14.365l9.914-16.702.255-83.136.256-83.135 21.206-.27 21.206-.27.294 6.979.294 6.979 29-16.215c15.95-8.918 29.594-16.595 30.319-17.061.902-.578-8.28-6.197-29-17.747L191.5.994l-.294 7.003-.294 7.003H65.088l-.294-6.991-.294-6.992L35 17.512" fill="#1976D2" fill-rule="evenodd"/></svg>